# xmcd
#
# Track frame offsets:
#	150
#	13152
#	28085
#	43829
#	55970
#	67055
#	78117
#	93264
#	106186
#	121419
#	136526
#	149453
#	164213
#	179505
#	198435
#
# Disc length: 2799 seconds
#
# Revision: 1
# Processed by: cddbd v1.5.2PL0 Copyright (c) Steve Scherf et al.
# Submitted via: audiograbber 1.83.01
#
DISCID=d50aed0f
DTITLE=Ernst Mosch und seine Orginal Egerländer Musikanten - Das Vermächtnis - 
DTITLE=seine letzten Aufnahmen Live CD 2
DYEAR=2009
DGENRE=Volksmusik
TTITLE0=Ernst Mosch - Junges Leben
TTITLE1=Ernst Mosch - Musikantenparade
TTITLE2=Ernst Mosch - Sommernacht in Prag
TTITLE3=Ernst Mosch - Egerländer Wirtshauspolka
TTITLE4=Ernst Mosch - So ein schöner Tag
TTITLE5=Ernst Mosch - Die Grubenpferde
TTITLE6=Ernst Mosch - Deine Augen, sie sagen ja
TTITLE7=Ernst Mosch - Am Kreuzersteg
TTITLE8=Ernst Mosch - Rauschende Birken
TTITLE9=Ernst Mosch - Anna Polka
TTITLE10=Ernst Mosch - Der Solotrommler Marsch
TTITLE11=Ernst Mosch - Löffelpolka
TTITLE12=Ernst Mosch - Bis bald auf Wiedersehn
TTITLE13=Ernst Mosch - Alte Kameraden Verabschiedung Ernst Mosch 
TTITLE14=Ernst Mosch - Gute Nacht
EXTD=YEAR: 2009
EXTT0=
EXTT1=
EXTT2=
EXTT3=
EXTT4=
EXTT5=
EXTT6=
EXTT7=
EXTT8=
EXTT9=
EXTT10=
EXTT11=
EXTT12=
EXTT13=
EXTT14=
PLAYORDER=
